<?xml version="1.0" standalone="no"?>
<!DOCTYPE svg PUBLIC "-//W3C//DTD SVG 20010904//EN"
 "http://www.w3.org/TR/2001/REC-SVG-20010904/DTD/svg10.dtd">
<svg version="1.0" xmlns="http://www.w3.org/2000/svg"
 width="256.000000pt" height="256.000000pt" viewBox="0 0 256.000000 256.000000"
 preserveAspectRatio="xMidYMid meet">
<metadata>
Created by potrace 1.14, written by Peter Selinger 2001-2017
</metadata>
<g transform="translate(0.000000,256.000000) scale(0.100000,-0.100000)"
fill="#000000" stroke="none">
<path d="M1145 2554 c-180 -26 -317 -68 -458 -141 -164 -85 -334 -232 -446
-385 -96 -133 -181 -327 -218 -500 -24 -115 -24 -381 0 -496 109 -512 494
-897 1007 -1008 117 -25 381 -26 498 -1 383 82 712 329 885 664 54 106 98 229
123 343 26 119 26 381 0 500 -83 384 -328 710 -663 883 -105 54 -233 100 -340
122 -75 16 -325 28 -388 19z m-21 -123 c3 -5 -8 -11 -24 -15 -38 -7 -39 -32
-1 -41 42 -9 57 -30 43 -60 -7 -14 -21 -26 -32 -26 -11 -1 -25 -2 -32 -3 -6
-1 -13 5 -15 12 -3 8 6 12 27 12 42 0 37 31 -7 42 -42 11 -54 45 -23 70 24 19
55 24 64 9z m293 -53 c-2 -61 -1 -63 23 -63 23 0 26 5 34 55 10 62 11 64 24
56 11 -7 -5 -105 -20 -123 -15 -18 -64 -16 -83 4 -13 12 -15 26 -11 52 3 20 6
46 6 59 0 13 6 22 15 22 12 0 14 -13 12 -62z m-407 32 c0 -5 -3 -10 -7 -10
-28 -1 -33 -17 -18 -66 17 -58 19 -74 5 -74 -5 0 -17 27 -27 60 -15 55 -18 59
-40 54 -44 -12 -23 15 25 29 60 19 62 19 62 7z m598 -11 c36 -12 48 -39 32
-69 -9 -17 -19 -21 -48 -18 -32 3 -37 0 -40 -20 -2 -12 -10 -22 -18 -22 -17 0
-17 3 1 65 26 86 21 82 73 64z m-727 -74 c11 -25 19 -56 17 -68 -4 -29 -52
-56 -75 -41 -18 10 -62 89 -63 112 -1 30 22 8 45 -43 24 -56 43 -67 65 -40 10
12 9 23 -5 57 -9 24 -19 49 -22 56 -3 6 0 12 6 12 7 0 21 -20 32 -45z m409 35
c0 -5 -13 -10 -30 -10 -16 0 -30 5 -30 10 0 6 14 10 30 10 17 0 30 -4 30 -10z
m490 -46 c0 -8 -5 -25 -11 -36 -9 -17 -17 -19 -49 -14 -33 5 -40 3 -45 -14 -3
-11 -13 -20 -21 -20 -18 0 -19 -3 16 74 l29 67 41 -21 c22 -11 40 -27 40 -36z
m120 -55 c0 -12 -7 -11 -31 2 -15 8 -24 7 -35 -2 -14 -11 -13 -15 8 -30 12
-10 20 -21 16 -25 -4 -4 -15 -1 -23 6 -13 11 -19 10 -33 -4 -15 -15 -15 -18
-2 -26 37 -23 44 -29 38 -35 -7 -7 -63 20 -72 34 -4 5 10 36 30 69 l35 60 35
-20 c19 -11 34 -24 34 -29z m-1178 20 c11 -6 26 -27 35 -46 13 -33 13 -38 -5
-62 -25 -34 -67 -39 -97 -11 -44 41 -40 101 8 120 30 12 35 12 59 -1z m786
-84 c115 -31 187 -63 286 -129 201 -134 349 -350 403 -588 21 -96 21 -298 -1
-396 -52 -237 -201 -454 -402 -588 -100 -66 -171 -98 -294 -131 -80 -22 -116
-26 -230 -26 -115 0 -150 4 -235 26 -534 143 -836 694 -664 1212 49 146 112
251 217 359 162 166 364 266 587 290 84 8 245 -6 333 -29z m473 14 c36 -25 39
-63 7 -80 -29 -15 -38 -28 -38 -57 0 -13 -4 -20 -10 -17 -5 3 -10 24 -10 46 0
43 -5 47 -31 23 -39 -35 -37 -6 3 49 23 31 44 57 46 57 2 0 17 -9 33 -21z
m-1401 -7 c0 -4 -9 -13 -20 -20 -35 -22 -22 -68 26 -95 7 -4 23 2 37 13 14 11
28 16 31 11 8 -13 -42 -51 -66 -51 -26 0 -78 53 -78 80 0 11 11 32 25 45 24
25 45 32 45 17z m-130 -117 c-31 -33 -17 -50 28 -33 61 23 94 -27 47 -72 -29
-27 -47 -20 -20 10 23 26 13 55 -14 40 -36 -19 -70 -12 -77 15 -7 29 18 65 44
65 12 0 10 -6 -8 -25z m1689 -21 c27 -34 27 -64 1 -71 -11 -3 -20 -11 -20 -18
0 -6 -9 -20 -20 -30 -20 -18 -21 -18 -47 1 -50 38 -50 46 3 97 27 26 52 47 56
47 4 0 16 -12 27 -26z m-1736 -146 c20 -12 37 -28 37 -35 0 -17 -11 -16 -38 3
-22 15 -24 15 -37 -2 -20 -26 -19 -33 8 -54 12 -10 19 -21 15 -25 -9 -10 -118
57 -118 72 0 17 11 16 37 -2 19 -14 22 -13 38 11 16 24 16 26 -2 40 -10 7 -21
14 -25 14 -4 0 -5 7 -1 15 5 14 8 14 27 1 11 -9 38 -26 59 -38z m1817 44 c0
-5 -21 -23 -46 -41 -28 -21 -43 -38 -40 -47 3 -8 9 -21 12 -29 11 -27 -10 -16
-33 17 l-22 32 52 38 c51 36 77 47 77 30z m70 -111 c0 -4 -21 -18 -46 -30 -52
-26 -64 -46 -41 -68 14 -14 20 -13 67 11 51 27 69 29 55 7 -10 -16 -81 -51
-104 -51 -25 0 -54 41 -49 70 2 14 21 32 53 50 47 26 65 29 65 11z m-2037 -44
c-4 -19 3 -27 46 -47 28 -13 51 -26 51 -30 0 -18 -17 -17 -61 5 -56 29 -69 31
-69 10 0 -8 -4 -15 -10 -15 -15 0 -12 16 10 60 22 44 40 53 33 17z m2117 -122
c15 -46 7 -69 -11 -30 -7 17 -14 31 -15 33 0 1 -9 0 -18 -4 -13 -5 -16 -14
-12 -30 7 -28 -10 -33 -19 -5 -4 13 -12 17 -25 14 -23 -6 -24 -12 -10 -47 6
-17 6 -26 0 -26 -12 0 -43 71 -35 79 6 6 115 49 127 50 3 1 12 -15 18 -34z
m-2050 -25 c0 -5 -9 -10 -20 -10 -28 0 -48 -50 -26 -66 9 -6 16 -14 16 -18 0
-15 -26 -3 -74 36 -28 23 -53 43 -55 44 -1 2 0 7 4 13 8 14 155 15 155 1z
m-173 -135 c-5 -30 -3 -35 15 -35 11 0 22 8 25 20 3 11 10 20 15 20 6 0 7 -11
4 -25 -6 -22 -3 -25 19 -25 20 0 25 5 25 24 0 26 15 43 24 28 3 -5 1 -26 -5
-46 l-11 -38 -46 7 c-92 13 -95 14 -88 48 3 16 6 36 6 43 0 8 5 14 11 14 8 0
10 -12 6 -35z m2273 -23 c0 -12 -17 -27 -47 -42 -46 -22 -47 -24 -23 -31 14
-4 37 -7 51 -8 29 -1 48 -30 28 -42 -16 -10 -130 -22 -137 -14 -10 10 20 25
51 25 43 0 31 17 -18 24 -25 4 -45 11 -45 16 0 5 21 21 48 35 l47 25 -47 -6
c-32 -4 -48 -3 -48 5 0 10 16 16 70 24 57 9 70 7 70 -11z m-2194 -92 c15 0 24
-6 24 -16 0 -12 -7 -14 -29 -9 -26 5 -29 3 -33 -25 -5 -37 -3 -40 34 -40 15 0
28 -5 28 -10 0 -16 -142 -8 -148 8 -2 8 7 12 27 12 20 0 31 5 31 14 0 8 3 21
6 30 5 13 -1 16 -25 16 -22 0 -31 5 -31 16 0 14 8 16 46 10 26 -3 57 -6 70 -6z
m2178 -90 c28 -10 42 -46 32 -84 -11 -46 -102 -55 -131 -13 -21 31 -19 54 10
82 26 27 49 31 89 15z m-2190 -108 l-39 -34 38 5 c26 4 37 2 37 -7 0 -8 -19
-16 -52 -20 -77 -9 -88 -8 -88 9 0 10 11 15 33 16 30 0 31 1 12 14 -51 36 -59
44 -53 50 4 4 22 -2 40 -13 l33 -20 35 29 c49 42 53 14 4 -29z m2179 -58 c21
-4 37 -12 37 -20 0 -10 -11 -12 -47 -7 -27 3 -50 7 -52 9 -9 8 -31 -19 -31
-37 0 -19 11 -24 78 -34 61 -10 54 -29 -8 -22 -66 8 -90 22 -90 53 0 60 24 72
113 58z m-2129 -57 c19 -54 -58 -107 -113 -78 -22 12 -35 48 -28 78 4 17 4 17
11 -2 15 -40 24 -50 48 -53 13 -2 35 6 48 16 22 18 23 22 12 47 -10 21 -10 26
0 23 7 -3 17 -16 22 -31z m2081 -96 c28 -10 50 -24 50 -31 0 -8 -23 -21 -55
-30 l-55 -17 43 -13 c23 -7 42 -19 42 -26 0 -9 -17 -7 -62 8 -35 10 -67 23
-72 28 -11 11 22 28 73 36 22 4 41 10 41 13 0 4 -20 12 -45 19 -25 7 -45 16
-45 22 0 14 27 11 85 -9z m-2065 -5 c0 -8 -5 -16 -12 -18 -19 -7 0 -58 22 -58
10 0 22 -4 25 -10 4 -6 -23 -10 -74 -10 -99 0 -103 10 -28 68 57 45 67 49 67
28z m65 -153 c8 -20 14 -37 13 -38 -13 -11 -111 -55 -123 -55 -31 0 -13 19 41
44 41 19 55 30 50 41 -3 8 -9 22 -12 30 -3 8 -1 15 5 15 6 0 18 -16 26 -37z
m1921 -15 c45 -22 46 -22 60 -4 24 34 29 7 6 -39 -22 -45 -44 -62 -35 -26 4
16 -6 25 -46 45 -28 15 -51 31 -51 36 0 15 15 12 66 -12z m-41 -92 c39 -53 48
-74 32 -78 -24 -4 -147 25 -144 35 2 7 13 11 25 9 24 -4 57 37 42 52 -12 12
-13 36 -2 36 4 -1 25 -25 47 -54z m-1812 -14 l17 -30 -57 -36 c-32 -20 -61
-36 -65 -36 -14 0 -41 67 -35 84 4 9 13 16 21 16 8 0 27 11 40 25 30 30 51 24
79 -23z m1738 -99 c42 -32 63 -63 43 -63 -10 0 -114 84 -114 92 0 17 25 6 71
-29z m-1651 -18 c10 -12 7 -22 -21 -54 -35 -39 -65 -56 -74 -41 -3 5 -1 12 5
15 8 5 7 12 -2 22 -11 14 -10 15 7 10 25 -8 69 27 61 48 -7 19 8 19 24 0z
m1651 -98 c-5 -5 -31 -4 -61 2 -29 6 -55 10 -57 8 -2 -3 12 -18 31 -35 22 -19
31 -34 25 -38 -13 -8 -110 86 -102 99 5 8 36 5 103 -10 23 -5 22 -3 -13 34
-57 60 -31 61 30 1 31 -31 49 -56 44 -61z m-1583 31 c7 -7 12 -19 12 -27 0
-11 -4 -10 -20 4 -24 22 -36 14 -21 -13 6 -11 8 -28 5 -36 -8 -20 -48 -21 -64
-1 -17 20 -5 32 15 15 21 -18 31 -5 17 24 -17 38 26 64 56 34z m1402 -37 c0
-5 -9 -13 -20 -16 -11 -4 -20 -15 -20 -27 0 -18 4 -19 36 -14 42 8 64 -6 64
-40 0 -24 -31 -49 -53 -41 -7 2 -2 9 11 16 12 6 22 19 22 28 0 13 -7 14 -41 9
-66 -11 -90 25 -47 71 22 23 48 31 48 14z m-1340 -22 c0 -6 -16 -30 -35 -54
-25 -29 -32 -45 -23 -48 7 -2 11 -7 8 -10 -8 -8 -50 3 -50 13 0 4 18 30 41 59
39 49 59 63 59 40z"/>
<path d="M1575 2369 c-8 -25 7 -44 29 -36 22 9 20 34 -3 47 -16 8 -21 6 -26
-11z"/>
<path d="M1702 2316 c-9 -21 -8 -26 8 -31 11 -4 24 -3 30 0 16 10 12 42 -6 49
-21 8 -19 9 -32 -18z"/>
<path d="M654 2245 c-9 -22 15 -73 38 -80 21 -7 48 10 48 32 0 7 -7 25 -16 38
-18 28 -61 34 -70 10z"/>
<path d="M1105 2195 c-198 -36 -378 -135 -516 -284 l-71 -75 41 -34 c23 -18
41 -40 41 -47 0 -7 9 -23 19 -36 15 -18 22 -21 31 -13 9 9 9 17 1 32 -15 28
-1 62 49 116 28 30 43 57 47 83 3 21 10 46 15 56 23 45 143 61 231 31 40 -14
48 -21 63 -60 16 -42 16 -45 -1 -64 -18 -20 -18 -21 7 -48 14 -15 33 -42 42
-59 9 -18 19 -33 21 -33 3 0 25 42 50 93 50 105 134 222 167 232 25 9 48 -16
48 -51 0 -12 19 -44 43 -70 49 -56 97 -142 97 -173 0 -28 26 -27 34 2 3 13 21
43 40 67 19 25 38 56 41 70 4 13 11 31 17 37 15 18 71 16 112 -3 36 -18 42
-34 50 -134 1 -25 13 -62 25 -82 18 -30 22 -50 21 -105 -3 -84 3 -97 48 -125
21 -12 58 -40 84 -62 87 -75 113 -93 145 -100 22 -5 35 -16 42 -34 16 -40 4
96 -15 173 -90 365 -379 636 -747 701 -99 17 -227 17 -322 -1z"/>
<path d="M1313 2023 c-22 -8 -14 -23 13 -23 15 0 24 5 22 12 -5 14 -18 18 -35
11z"/>
<path d="M802 1968 c5 -14 58 -23 58 -9 0 10 -24 21 -47 21 -8 0 -13 -5 -11
-12z"/>
<path d="M1694 1934 c-22 -51 -3 -66 25 -19 25 43 26 55 5 55 -8 0 -22 -16
-30 -36z"/>
<path d="M1255 1936 c-16 -12 -17 -17 -8 -27 16 -16 67 5 60 24 -6 18 -30 20
-52 3z"/>
<path d="M790 1915 c0 -16 34 -38 44 -28 7 7 -23 43 -36 43 -4 0 -8 -7 -8 -15z"/>
<path d="M1234 1869 c-18 -21 -18 -21 16 -17 24 2 36 9 38 21 5 24 -30 22 -54
-4z"/>
<path d="M1637 1842 c-22 -24 -21 -32 1 -32 21 0 42 18 42 37 0 19 -24 16 -43
-5z"/>
<path d="M726 1820 c-17 -18 -17 -20 -2 -26 19 -7 46 12 46 32 0 20 -22 16
-44 -6z"/>
<path d="M1585 1570 c-21 -23 -12 -39 13 -24 19 12 29 44 14 44 -5 0 -17 -9
-27 -20z"/>
<path d="M810 1570 c0 -6 7 -22 16 -35 16 -24 15 -24 -32 -47 -27 -12 -64 -22
-84 -23 -32 0 -35 -2 -33 -27 1 -17 -3 -28 -11 -28 -7 0 -22 -11 -35 -24 -19
-20 -34 -24 -124 -30 -163 -11 -167 -12 -167 -53 l0 -35 40 7 c27 5 49 2 71
-9 41 -20 47 -20 95 3 21 10 60 21 85 25 40 6 52 3 84 -19 23 -15 52 -25 74
-25 20 0 46 -3 58 -6 l21 -6 -24 -35 c-25 -37 -40 -95 -29 -112 9 -15 -5 -13
-35 4 -33 19 -92 19 -116 -1 -19 -15 -19 -16 1 -9 59 21 106 13 151 -27 20
-18 20 -18 16 40 -4 50 0 65 21 98 14 21 39 52 56 68 31 29 31 29 53 10 l23
-19 -19 23 c-12 14 -30 22 -49 22 -62 0 -161 23 -193 45 l-34 23 37 28 c40 31
91 61 163 95 25 12 51 25 59 29 8 3 17 12 19 18 5 16 -33 15 -59 0 -18 -11
-23 -10 -43 15 -21 26 -56 37 -56 17z"/>
<path d="M1186 1573 c-13 -13 -5 -34 20 -56 14 -12 34 -38 45 -57 19 -38 54
-73 80 -82 9 -4 36 -36 59 -72 24 -36 49 -66 57 -66 18 0 27 24 19 55 -9 36
-88 115 -115 115 -14 0 -28 11 -39 31 -44 80 -109 149 -126 132z"/>
<path d="M1604 1506 c-7 -18 12 -54 40 -78 27 -22 50 -23 42 -2 -3 9 -9 26
-12 38 -3 12 -19 30 -35 40 -25 15 -30 15 -35 2z"/>
<path d="M1834 1496 c-3 -8 -1 -23 5 -35 6 -11 11 -29 11 -40 0 -23 28 -28 60
-11 13 7 27 6 44 -2 15 -6 29 -8 32 -5 11 11 -16 35 -47 42 -16 4 -41 20 -56
36 -31 32 -41 36 -49 15z"/>
<path d="M541 1408 c-5 -15 -4 -26 3 -30 14 -9 51 26 42 41 -12 19 -36 12 -45
-11z"/>
<path d="M957 1393 c-10 -10 -8 -43 2 -43 5 0 12 -8 15 -18 5 -16 54 -52 70
-52 12 0 6 28 -8 39 -8 7 -12 21 -9 31 4 15 0 20 -15 20 -11 0 -22 7 -26 15
-6 16 -18 19 -29 8z"/>
<path d="M1672 1358 c-34 -34 -6 -60 101 -94 46 -14 60 -15 70 -5 16 16 -22
46 -76 61 -21 6 -47 20 -58 31 -22 22 -22 22 -37 7z"/>
<path d="M1516 1275 c-3 -9 3 -19 17 -26 12 -7 38 -29 58 -50 20 -22 44 -39
53 -39 27 0 31 29 7 46 -11 8 -21 22 -21 29 0 15 -68 55 -94 55 -7 0 -16 -7
-20 -15z"/>
<path d="M995 1230 c10 -11 20 -20 23 -20 3 0 -3 9 -13 20 -10 11 -20 20 -23
20 -3 0 3 -9 13 -20z"/>
<path d="M2192 1230 c0 -14 2 -19 5 -12 2 6 2 18 0 25 -3 6 -5 1 -5 -13z"/>
<path d="M1075 1210 c-3 -5 -17 -10 -30 -10 l-23 0 21 -40 c21 -38 21 -41 5
-86 l-16 -46 30 28 c26 26 37 29 92 29 l63 0 -15 25 c-23 38 -95 110 -108 110
-7 0 -16 -4 -19 -10z m32 -80 c11 -16 10 -21 -6 -30 -26 -14 -26 -14 -27 20
-1 34 15 39 33 10z"/>
<path d="M528 1182 c-29 -17 -36 -36 -18 -47 6 -4 2 -18 -11 -36 -11 -16 -18
-36 -15 -44 6 -17 32 -20 41 -5 7 11 45 13 69 4 12 -5 16 -20 16 -58 0 -52 25
-117 48 -124 6 -2 12 4 12 13 0 25 46 65 76 65 31 0 100 -66 110 -105 3 -14
10 -25 16 -25 18 0 -43 95 -75 118 -55 37 -97 27 -134 -34 -10 -17 -12 -16
-27 18 -20 47 -20 97 -1 126 20 28 8 52 -39 77 -30 16 -32 20 -19 30 18 14 11
46 -9 44 -7 0 -25 -8 -40 -17z"/>
<path d="M630 1175 c-10 -19 -11 -28 -2 -37 15 -15 62 16 62 42 0 30 -43 26
-60 -5z"/>
<path d="M2181 1174 c0 -11 3 -14 6 -6 3 7 2 16 -1 19 -3 4 -6 -2 -5 -13z"/>
<path d="M1945 1140 c-4 -6 14 -31 43 -59 43 -41 49 -52 45 -77 -3 -16 -19
-43 -36 -61 -25 -27 -32 -30 -48 -20 -11 7 -19 20 -19 29 0 10 -9 22 -20 28
-16 9 -18 15 -10 30 5 10 10 23 10 28 0 12 -78 42 -108 42 -34 0 -29 -36 7
-48 23 -8 28 -15 24 -31 -6 -25 13 -51 38 -51 24 0 34 -17 19 -35 -14 -17 -5
-35 17 -35 14 0 13 -4 -5 -23 -12 -13 -22 -29 -22 -35 0 -13 64 -74 77 -73 4
1 8 22 8 47 0 44 3 48 72 111 69 62 73 64 81 43 8 -20 9 -19 24 17 19 44 33
105 20 85 -13 -19 -73 10 -108 52 -31 37 -95 59 -109 36z"/>
<path d="M1636 1112 c-10 -16 48 -75 69 -71 21 4 35 39 16 39 -6 0 -20 9 -31
20 -21 21 -45 26 -54 12z"/>
<path d="M2172 1090 c0 -14 2 -19 5 -12 2 6 2 18 0 25 -3 6 -5 1 -5 -13z"/>
<path d="M706 1071 c-4 -6 -17 -11 -28 -11 -20 0 -20 -1 -4 -19 9 -10 14 -25
10 -35 -7 -18 7 -21 23 -5 8 8 17 8 33 -1 20 -11 21 -10 15 10 -4 12 -1 27 5
35 10 12 9 15 -7 15 -10 0 -24 5 -30 11 -8 8 -13 8 -17 0z"/>
<path d="M1150 1065 c-7 -8 -19 -15 -27 -15 -12 0 -13 -3 -4 -14 6 -7 9 -20 6
-27 -4 -11 4 -14 35 -14 31 0 39 3 35 14 -3 7 -1 19 4 25 6 7 1 17 -14 28 -20
15 -25 16 -35 3z"/>
<path d="M1230 1071 c0 -5 5 -13 10 -16 6 -3 10 -2 10 4 0 5 -4 13 -10 16 -5
3 -10 2 -10 -4z"/>
<path d="M1270 1044 c-11 -3 -15 -18 -15 -52 0 -29 -7 -58 -19 -75 l-19 -28
-15 23 c-35 53 -80 63 -125 28 -30 -23 -92 -120 -77 -120 6 0 10 -4 10 -10 0
-5 -21 -10 -46 -10 -25 0 -43 -4 -40 -9 3 -5 15 -7 26 -4 13 3 20 0 20 -8 0
-12 2 -12 9 -1 6 11 14 8 34 -12 14 -14 37 -26 52 -26 32 0 32 -17 0 -32 -19
-9 -29 -8 -49 5 -23 15 -24 15 -19 -3 5 -20 -39 -70 -63 -70 -7 0 -26 16 -41
35 -15 19 -33 35 -40 35 -7 0 5 -18 27 -40 22 -22 48 -40 59 -40 10 0 32 15
47 33 32 36 74 40 96 8 32 -44 132 -67 145 -33 4 9 14 22 22 29 23 17 3 32
-49 37 -79 8 -98 15 -93 38 5 17 2 19 -29 13 -26 -5 -39 -2 -52 10 -9 9 -14
21 -10 26 3 5 7 25 9 44 4 41 30 78 71 101 44 24 76 13 98 -33 l18 -38 24 30
c13 17 24 35 24 42 0 14 63 28 79 18 8 -4 6 -13 -4 -28 -31 -44 -4 -66 34 -28
24 24 36 15 45 -32 5 -29 16 -43 46 -62 23 -14 40 -34 42 -47 2 -19 11 -24 43
-28 27 -3 40 -10 40 -20 0 -8 20 -35 44 -59 l43 -43 61 7 c34 3 69 11 79 16
12 7 18 6 18 -1 0 -6 12 -16 26 -22 l26 -12 -38 -34 -39 -34 49 33 c72 50 218
220 203 236 -12 11 -45 -18 -50 -44 -3 -15 -23 -47 -44 -71 l-38 -43 -42 18
c-32 14 -43 24 -43 41 0 27 -3 27 50 1 46 -23 72 -18 78 15 3 12 -4 16 -26 16
-16 0 -35 7 -42 15 -7 8 -18 15 -24 15 -6 0 -23 13 -37 29 -15 17 -38 33 -52
36 -16 4 -27 15 -29 28 -2 17 -11 23 -40 25 -29 2 -38 0 -38 -12 0 -9 -9 -16
-20 -16 -11 0 -23 -7 -27 -16 -5 -13 -10 -11 -32 10 -18 17 -40 26 -71 28 -40
3 -47 7 -61 38 -9 19 -26 44 -38 54 -12 11 -21 24 -21 31 0 6 -10 21 -23 33
-22 21 -73 28 -117 16z m430 -284 c0 -24 46 -43 71 -29 14 7 18 16 14 27 -5
14 -4 15 6 5 9 -9 10 -21 3 -40 -7 -22 -17 -29 -41 -31 -46 -5 -70 12 -97 67
l-25 48 35 -16 c19 -8 34 -23 34 -31z"/>
<path d="M2100 889 c-7 -11 -10 -23 -7 -25 2 -2 9 7 15 21 14 30 7 33 -8 4z"/>
<path d="M2075 839 c-4 -6 -5 -12 -2 -15 2 -3 7 2 10 11 7 17 1 20 -8 4z"/>
<path d="M860 785 c0 -18 -31 -35 -64 -35 -16 0 -26 -6 -26 -14 0 -8 -19 -18
-45 -25 -37 -9 -45 -15 -45 -34 0 -18 8 -25 39 -33 22 -6 46 -7 53 -3 7 5 23
9 36 9 38 0 39 30 1 61 l-34 28 28 1 c16 0 40 12 59 30 22 22 26 30 14 30 -9
0 -16 -7 -16 -15z"/>
<path d="M626 744 c-18 -48 12 -69 50 -34 13 13 24 29 24 37 0 19 -66 17 -74
-3z"/>
<path d="M1762 505 c-37 -20 -50 -39 -15 -21 17 9 35 20 38 26 7 12 7 12 -23
-5z"/>
<path d="M1610 425 c-14 -8 -20 -14 -15 -14 6 0 21 6 35 14 14 8 21 14 15 14
-5 0 -21 -6 -35 -14z"/>
<path d="M1138 363 c6 -2 18 -2 25 0 6 3 1 5 -13 5 -14 0 -19 -2 -12 -5z"/>
<path d="M1228 353 c17 -2 47 -2 65 0 17 2 3 4 -33 4 -36 0 -50 -2 -32 -4z"/>
<path d="M1943 2181 c-10 -16 -9 -22 3 -32 12 -10 18 -9 31 4 13 13 14 19 3
31 -16 21 -23 20 -37 -3z"/>
<path d="M2101 2046 c-14 -17 -7 -36 14 -36 22 0 29 20 13 36 -13 13 -16 13
-27 0z"/>
<path d="M2050 2005 c-10 -12 -10 -18 0 -30 26 -31 59 -11 40 25 -13 24 -23
25 -40 5z"/>
<path d="M215 1630 c19 -21 35 -18 35 6 0 9 -10 14 -27 14 -25 0 -26 -1 -8
-20z"/>
<path d="M2326 1287 c-25 -18 -13 -55 20 -63 52 -13 95 31 62 64 -16 16 -60
15 -82 -1z"/>
<path d="M210 935 c-11 -13 -9 -15 15 -15 16 0 25 5 23 12 -7 19 -24 20 -38 3z"/>
<path d="M2190 705 c0 -9 9 -15 21 -15 18 0 19 2 9 15 -7 8 -16 15 -21 15 -5
0 -9 -7 -9 -15z"/>
<path d="M344 725 c-10 -24 14 -47 37 -34 15 8 17 14 9 29 -13 24 -38 26 -46
5z"/>
<path d="M294 689 c-3 -6 0 -17 7 -25 18 -17 44 -2 36 20 -7 18 -33 21 -43 5z"/>
</g>
</svg>
