<svg xmlns="http://www.w3.org/2000/svg" width="1280" height="800" viewBox="0 0 1280 800"><g fill="none" stroke="#00674A" stroke-opacity="0.075" stroke-linecap="round" stroke-linejoin="round"><g stroke-width="1.2"><path d="M640 431.6Q624 438.9 619.2 443.4Q614.4 448 609.7 456Q604.9 464 602.7 472Q600.5 480 601.6 488Q602.6 496 609 504Q615.3 512 622 516Q628.6 520 638.3 523.7Q648 527.3 656 529.3Q664 531.4 672 532.9Q680 534.4 688 535.5Q696 536.6 704 537.2Q712 537.9 720 538.1Q728 538.3 736 538.2Q744 538 752 537.4Q760 536.7 768 535.2Q776 533.7 784 531.1Q792 528.4 797.7 524.2Q803.5 520 804.2 512Q805 504 798.5 496.6Q792 489.3 785.6 484.6Q779.1 480 772.3 476Q765.5 472 758.8 468.4Q752 464.9 744 460.9Q736 457 728 453.3Q720 449.7 712 446.2Q704 442.8 696 439.8Q688 436.8 680 434.5Q672 432.2 664 431.2Q656 430.2 648 430.9L640 431.6"></path></g><g stroke-width="1.2"><path d="M608 391.9Q592 397.1 584 401.2Q576 405.4 569.8 410.7Q563.7 416 559.2 424Q554.7 432 553.1 440Q551.4 448 551 456Q550.6 464 551 472Q551.4 480 553.3 488Q555.3 496 560.5 504Q565.8 512 570.9 516.2Q576 520.4 582.6 524.2Q589.2 528 598.6 531.8Q608 535.6 616 537.9Q624 540.3 631.3 542.1Q638.6 544 647.3 545.7Q656 547.3 664 548.6Q672 549.9 679.8 550.9Q687.7 552 695.8 552.8Q704 553.6 712 554.1Q720 554.7 728 555Q736 555.4 744 555.4Q752 555.5 760 555.3Q768 555.1 776 554.5Q784 554 791.9 553Q799.7 552 807.9 550.2Q816 548.3 822.6 546.2Q829.2 544 836.2 540Q843.1 536 848.1 528Q853.1 520 850.7 512Q848.3 504 840.4 496Q832.5 488 827 484Q821.4 480 815.2 476Q809 472 802.3 468Q795.6 464 789.8 460.6Q784 457.2 776.3 452.6Q768.5 448 762 444Q755.4 440 749.7 436.3Q744 432.6 737.4 428.3Q730.9 424 725.4 420.4Q720 416.7 712.9 412.4Q705.8 408 697.9 404Q690.1 400 681 396.8Q672 393.5 664 391.9Q656 390.2 648 389.5Q640 388.8 632 389.1Q624 389.4 616 390.7L608 391.9"></path></g><g stroke-width="1.2"><path d="M624 367.6Q608 369.1 600 370.5Q592 371.9 584 374Q576 376 568 378.9Q560 381.9 552 385.7Q544 389.5 536 394.5Q528 399.6 520 407.8Q512 415.9 508.6 424Q505.1 432 504.7 440Q504.2 448 505.1 456Q506.1 464 507.6 472Q509.2 480 511.7 488Q514.2 496 519 504Q523.8 512 529.9 517.6Q536 523.1 544 528Q552 532.9 560 536.4Q568 539.9 576 542.7Q584 545.4 592 547.7Q600 549.9 608 551.8Q616 553.7 624 555.3Q632 556.9 640 558.3Q648 559.7 656 560.9Q664 562.1 672 563.1Q680 564.2 688 565.1Q696 566 704 566.8Q712 567.6 720 568.2Q728 568.8 736 569.3Q744 569.8 752 570.1Q760 570.4 768 570.5Q776 570.6 784 570.5Q792 570.4 800 570Q808 569.6 816 568.8Q824 568.1 832 566.7Q840 565.3 848 563.2Q856 561 864 557.4Q872 553.8 878.3 548.9Q884.5 544 888.5 536Q892.5 528 890.9 520Q889.4 512 884.7 505.9Q880 499.7 873.4 493.9Q866.8 488 861.4 484.2Q856 480.4 849.4 476.2Q842.8 472 836.2 468Q829.5 464 822.8 460Q816.1 456 809.5 452Q802.9 448 796.7 444Q790.4 440 784.5 436Q778.6 432 773.3 428.1Q768 424.3 762.5 420.1Q757 416 751.8 412Q746.5 408 741.3 404.1Q736 400.3 729.6 396.1Q723.3 392 715.8 388Q708.4 384 702.2 381.4Q696 378.8 688 376.2Q680 373.6 672 371.8Q664 370.1 656.1 369Q648.2 368 640.1 367.7Q632 367.4 628 367.5L624 367.6"></path></g><g stroke-width="2.2"><path d="M616 352Q632 351.6 640 352Q648 352.4 656 353.3Q664 354.3 672 355.9Q680 357.4 688 359.6Q696 361.8 704 364.6Q712 367.5 720 371.2Q728 374.9 735.9 379.4Q743.8 384 749.6 388Q755.4 392 760.6 396Q765.9 400 774.9 407.2Q784 414.5 790.1 419.2Q796.2 424 801.8 428Q807.3 432 813.3 436Q819.2 440 825.6 444Q832 448 838.8 452Q845.5 456 852.5 460Q859.4 464 865.7 467.6Q872 471.3 879.3 475.6Q886.5 480 892.6 484Q898.6 488 903.8 492Q909 496 914.5 501.6Q920 507.3 923.9 513.6Q927.8 520 928.8 528Q929.8 536 927 544Q924.2 552 918.1 559.1Q912 566.1 904 571.1Q896.1 576 888 578.8Q880 581.6 872 583.1Q864 584.7 856 585.6Q848 586.4 840 586.7Q832 587.1 824 587.1Q816 587.1 808 586.9Q800 586.7 792 586.4Q784 586 776 585.5Q768 585 760 584.4Q752 583.7 744 583Q736 582.3 728 581.6Q720 580.8 712 579.9Q704 579.1 696 578.2Q688 577.2 680 576.2Q672 575.2 664 574.1Q656 573 648 571.8Q640 570.6 632 569.3Q624 568 616 566.5Q608 565.1 600 563.5Q592 561.8 584 560Q576 558.2 568 556.1Q560 554 552 551.6Q544 549.1 536.9 546.6Q529.7 544 521.1 540Q512.6 536 506.2 532Q499.8 528 493.9 522.7Q488 517.3 484 512.1Q480 506.9 476 499Q472 491.1 468.5 481.6Q465.1 472 462.7 464Q460.4 456 459.3 448Q458.3 440 460.2 432Q462.1 424 467 417.2Q472 410.4 477.7 405.2Q483.3 400 489 396Q494.7 392 501.4 388Q508.2 384 514.1 381Q520 378 528 374.5Q536 370.9 544 367.9Q552 364.9 559.9 362.5Q567.9 360 575.9 358.1Q584 356.3 592 354.9Q600 353.6 608 352.8L615.9 352"></path></g><g stroke-width="1.2"><path d="M576 342.9Q560 346.7 552 349Q544 351.4 536 354.2Q528 357 520 360.2Q512 363.3 504 366.9Q496 370.4 490.1 373.2Q484.2 376 478.1 379.2Q472 382.3 464 386.8Q456 391.3 449.1 395.7Q442.2 400 436.7 404Q431.2 408 423.6 415.6Q416 423.2 412.5 431.6Q408.9 440 410.2 448Q411.4 456 415 464Q418.5 472 422.6 480Q426.6 488 431 496Q435.3 504 441.2 512Q447 520 455.5 527.2Q464 534.4 472 538.9Q480 543.5 488 546.9Q496 550.3 504 553Q512 555.8 519.1 557.9Q526.1 560 535.1 562.2Q544 564.5 551.6 566.2Q559.3 568 567.6 569.7Q576 571.4 584 572.9Q592 574.4 600 575.8Q608 577.2 616 578.5Q624 579.8 632 581Q640 582.2 648 583.4Q656 584.6 664 585.7Q672 586.9 680 588Q688 589.1 696 590.1Q704 591.2 712 592.3Q720 593.3 728 594.4Q736 595.4 744 596.5Q752 597.5 760 598.5Q768 599.5 776 600.5Q784 601.6 792 602.6Q800 603.6 808 604.6Q816 605.6 824 606.5Q832 607.4 840 608.2Q848 609 856 609.7Q864 610.3 872 610.6Q880 610.9 888 610.7Q896 610.4 904 609.4Q912 608.3 920 605.8Q928 603.3 936 598.2Q944 593 950.4 584.5Q956.8 576 960.1 568Q963.3 560 964.9 552Q966.4 544 965.8 536Q965.2 528 962.6 522Q960 516 956 510.8Q952 505.5 946.8 500.7Q941.6 496 936 492Q930.3 488 923.8 484Q917.3 480 910.6 476.3Q904 472.6 896.1 468.3Q888.1 464 880.7 460Q873.3 456 866.2 452Q859 448 852.3 444Q845.5 440 839.3 436Q833.1 432 827.3 428Q821.6 424 816.3 420Q811 416 805.5 411.6Q800 407.2 792 400.7Q784 394.1 777.4 389.1Q770.8 384 765.4 380.3Q760 376.6 752.8 372.3Q745.7 368 737.6 364Q729.5 360 720.7 356.5Q712 353 704 350.5Q696 348 688.3 346Q680.6 344 672.3 342.5Q664 340.9 656 339.9Q648 338.9 640 338.5Q632 338 624 338Q616 338.1 608 338.6Q600 339.2 592 340.3Q584 341.4 580 342.2L576 342.9"></path></g><g stroke-width="1.2"><path d="M584 327.5Q568 330.5 560 332.4Q552 334.4 544 336.8Q536 339.2 529.1 341.6Q522.2 344 513.1 347.5Q504 351 496 354.4Q488 357.7 480 361.3Q472 364.8 464 368.6Q456 372.3 448 376.1Q440 380 432 384Q424 387.9 416 392.1Q408 396.3 400 400.7Q392 405 384 409.8Q376 414.6 369.2 419.3Q362.4 424 357.2 429.3Q352 434.6 349.1 441.3Q346.2 448 349.1 455.5Q352 462.9 356 468.1Q360 473.4 366 480.7Q372 488 378 496Q384 504 388 509.4Q392 514.7 397.9 521.4Q403.8 528 409.9 532.8Q416 537.6 424 542.2Q432 546.8 440 550.3Q448 553.8 456 556.6Q464 559.4 472 561.7Q480 564.1 487.5 566Q495 568 503.5 569.9Q512 571.9 520 573.5Q528 575.2 536 576.7Q544 578.3 552 579.7Q560 581.2 568 582.5Q576 583.9 584 585.2Q592 586.5 600 587.8Q608 589.1 616 590.3Q624 591.5 632 592.8Q640 594 648 595.2Q656 596.5 664 597.7Q672 598.9 680 600.1Q688 601.4 696 602.7Q704 604 712 605.3Q720 606.6 728 607.9Q736 609.3 744 610.7Q752 612.2 760 613.7Q768 615.2 776 616.8Q784 618.4 792 620.1Q800 621.7 808 623.4Q816 625.2 824 626.9Q832 628.6 840 630.3Q848 632 856 633.4Q864 634.9 872 636.1Q880 637.2 888 638Q896 638.7 904 638.9Q912 639 920 638.4Q928 637.8 936 636.2Q944 634.7 952 631.9Q960 629.1 968 624.2Q976 619.4 981.5 613.7Q987.1 608 991.1 600Q995.2 592 997.1 584Q999.1 576 1000.2 568Q1001.3 560 1001.6 552Q1002 544 1001 536Q1000 528 996.3 520Q992.5 512 984.4 504Q976.2 496 970.2 492Q964.2 488 958.1 484.6Q952 481.2 944 477.1Q936 473 928 469.1Q920 465.2 912 461.3Q904 457.4 896 453.3Q888 449.3 880 444.9Q872 440.5 864.9 436.3Q857.7 432 851.6 428Q845.5 424 840 420Q834.4 416 829.3 412Q824.1 408 816.1 401.4Q808 394.9 801.2 389.4Q794.5 384 789.2 380.1Q784 376.2 777.8 372.1Q771.6 368 765.8 364.6Q760 361.2 752 357.1Q744 353.1 736 349.7Q728 346.3 720 343.4Q712 340.5 704.7 338.2Q697.4 336 688.7 333.8Q680 331.7 672 330.1Q664 328.5 656 327.4Q648 326.3 640 325.7Q632 325.1 624 325Q616 324.9 608 325.3Q600 325.7 592 326.6L584 327.5"></path></g><g stroke-width="1.2"><path d="M608 311.7Q592 312.7 584 313.8Q576 314.8 568 316.5Q560 318.1 552 320.2Q544 322.4 536 325Q528 327.6 520 330.5Q512 333.4 504 336.6Q496 339.8 488 343.2Q480 346.5 473.7 349.3Q467.4 352 458.3 356Q449.2 360 440.6 363.8Q432 367.6 424 371.2Q416 374.7 408 378.2Q400 381.8 392 385.2Q384 388.7 376 392.1Q368 395.5 360 398.8Q352 402.1 344.6 405.1Q337.3 408 328.6 411.5Q320 415.1 312 418.4Q304 421.7 296 425.1Q288 428.5 280 432.3Q272 436.1 264 441.2Q256 446.2 253.5 455.1Q251 464 257.5 469.9Q264 475.9 272 480.9Q280 486 287.9 491Q295.7 496 301.1 500Q306.5 504 313.2 510.2Q320 516.3 325.7 522.2Q331.4 528 337.7 533.5Q344 539 352 544.1Q360 549.2 368 552.8Q376 556.4 384 559.2Q392 562 400 564.3Q408 566.6 416 568.6Q424 570.6 432 572.3Q440 574.1 448 575.7Q456 577.3 464 578.8Q472 580.3 480 581.7Q488 583 496 584.4Q504 585.7 512 587Q520 588.3 528 589.5Q536 590.8 544 592Q552 593.2 560 594.4Q568 595.7 576 596.9Q584 598 590.6 599Q597.2 600 606.6 601.5Q616 603 624 604.2Q632 605.5 640 606.7Q648 608 656 609.4Q664 610.8 672 612.2Q680 613.6 686.7 614.8Q693.4 616 702.7 617.9Q712 619.8 720 621.5Q728 623.1 736 625Q744 626.8 752 628.8Q760 630.7 768 632.8Q776 634.9 784 637Q792 639.1 800 641.3Q808 643.5 816 645.6Q824 647.7 832 649.7Q840 651.6 848 653.3Q856 655.1 864 656.4Q872 657.8 880 658.8Q888 659.7 896 660.2Q904 660.6 912 660.5Q920 660.4 928 659.7Q936 659 944 657.5Q952 656.1 960 653.8Q968 651.5 976 648.2Q984 644.9 992 640.3Q1000 635.7 1007 629.8Q1013.9 624 1019 617.1Q1024 610.1 1027.4 601.1Q1030.9 592 1032.1 584Q1033.4 576 1034.1 568Q1034.7 560 1035.1 552Q1035.4 544 1034.9 536Q1034.5 528 1031.8 520Q1029.2 512 1022.6 504.5Q1016 497 1009.4 492.5Q1002.8 488 995 484Q987.3 480 978.3 476Q969.3 472 960.6 468.4Q952 464.8 944 461.4Q936 458 928 454.5Q920 451 912 447.2Q904 443.4 896 439.2Q888 435 880 430.4Q872 425.7 864.7 420.8Q857.4 416 851.9 412Q846.5 408 839.2 402.3Q832 396.5 824.3 390.3Q816.5 384 811.3 380Q806.1 376 800.5 372Q794.8 368 788.5 364Q782.3 360 775.1 356Q768 352 760 348.1Q752 344.2 744 340.8Q736 337.4 728 334.5Q720 331.5 712 328.9Q704 326.3 696 324.1Q688 321.8 680 319.9Q672 318.1 664 316.6Q656 315.1 648 314Q640 313 632 312.4Q624 311.8 616 311.8L608 311.7"></path></g><g stroke-width="1.2"><path d="M560 303.2Q544 307.5 537.3 309.8Q530.6 312 521.3 315.5Q512 319 504 322.3Q496 325.6 488 329.1Q480 332.5 472 336.1Q464 339.6 456 343.2Q448 346.7 442 349.4Q436 352 430 354.6Q424 357.2 416 360.6Q408 364 400 367.3Q392 370.5 385 373.3Q378 376 369 379.4Q360 382.8 352 385.7Q344 388.6 336 391.3Q328 394 320 396.5Q312 399 304 401.5Q296 404 288.7 406Q281.3 408 272.7 410.5Q264 413 256 415.1Q248 417.3 240 419.6Q232 421.9 224 424.4Q216 426.9 208.6 429.4Q201.2 432 193.1 436Q184.9 440 177.7 448Q170.5 456 172 464Q173.6 472 178.8 478Q184 484.1 190.9 490Q197.8 496 202.9 500.1Q208 504.3 216 511.4Q224 518.5 228.5 523.2Q233 528 239.5 536Q245.9 544 251 549.5Q256 555 264 561.1Q272 567.1 280 570.8Q288 574.6 296 577.1Q304 579.6 312 581.4Q320 583.2 328 584.5Q336 585.7 344 586.7Q352 587.7 360 588.5Q368 589.3 376 590Q384 590.7 391.4 591.4Q398.8 592 407.4 592.8Q416 593.5 424 594.3Q432 595 440 595.8Q448 596.5 456 597.3Q464 598.1 472 598.9Q480 599.7 488 600.6Q496 601.5 504 602.5Q512 603.4 520 604.3Q528 605.3 536 606.3Q544 607.2 552 608.3Q560 609.3 568 610.5Q576 611.6 584 612.7Q592 613.9 599.3 614.9Q606.7 616 615.3 617.5Q624 618.9 632 620.3Q640 621.7 646.5 622.9Q652.9 624 662.5 626Q672 627.9 680 629.6Q688 631.3 696 633.3Q704 635.2 712 637.2Q720 639.2 728 641.3Q736 643.5 744 645.7Q752 647.9 760 650.3Q768 652.6 776 654.9Q784 657.2 792 659.4Q800 661.6 808 663.7Q816 665.8 824 667.7Q832 669.6 840 671.3Q848 673 856 674.3Q864 675.7 872 676.7Q880 677.7 888 678.2Q896 678.8 904 678.8Q912 678.9 920 678.4Q928 677.9 936 676.8Q944 675.7 952 674Q960 672.3 968 669.9Q976 667.5 984 664.5Q992 661.4 1000 657.5Q1008 653.6 1016 648.6Q1024 643.6 1031.2 637.8Q1038.4 632 1043.2 626.5Q1048 621 1052 614.5Q1055.9 608 1058.6 600Q1061.2 592 1062.5 584Q1063.8 576 1064.7 568Q1065.5 560 1066.4 552Q1067.2 544 1067.9 536Q1068.5 528 1067.9 520Q1067.2 512 1063 504Q1058.8 496 1053.4 491.6Q1048 487.2 1041.4 483.6Q1034.7 480 1025.4 476.3Q1016 472.6 1008 469.9Q1000 467.1 992 464.4Q984 461.8 976 459Q968 456.3 960 453.4Q952 450.5 944 447.4Q936 444.2 928 440.7Q920 437.2 912 433.3Q904 429.4 896 424.9Q888 420.4 880 415.2Q872 410 865.2 405Q858.4 400 849.2 392.8Q840 385.5 833.9 380.8Q827.8 376 822.4 372Q816.9 368 810.9 364Q804.9 360 798.5 356.1Q792 352.2 784.4 348.1Q776.8 344 768.4 340Q760 336 752 332.6Q744 329.2 736 326.1Q728 323 720 320.2Q712 317.4 704 314.9Q696 312.4 688 310.2Q680 307.9 672 306Q664 304.1 656 302.5Q648 301 640 299.9Q632 298.8 624 298.2Q616 297.6 608 297.6Q600 297.6 592 298.2Q584 298.9 576 300.2Q568 301.4 564 302.3L560 303.2"></path></g><g stroke-width="2.2"><path d="M560 287Q544 291.5 537.7 293.8Q531.4 296 521.7 299.9Q512 303.8 504 307.4Q496 310.9 488 314.6Q480 318.4 472 322.1Q464 325.9 456 329.6Q448 333.4 440 337Q432 340.7 424 344.2Q416 347.7 408 351.1Q400 354.4 393 357.2Q386.1 360 377 363.4Q368 366.9 360 369.8Q352 372.6 344 375.3Q336 377.9 328 380.4Q320 382.9 312 385.2Q304 387.6 296 389.7Q288 391.8 280 393.9Q272 395.9 264 397.8Q256 399.6 248 401.5Q240 403.4 232 405.2Q224 406.9 216 408.8Q208 410.7 200 412.6Q192 414.6 184 416.9Q176 419.1 168.4 421.6Q160.8 424 152.4 427.7Q144 431.4 137.4 435.7Q130.9 440 125.8 448Q120.8 456 122.4 464Q124.1 472 129.9 480Q135.8 488 143.5 496Q151.2 504 158.5 512Q165.8 520 170.9 526.9Q176 533.8 180 540.1Q184 546.4 188 552.5Q192 558.7 199.6 567.3Q207.3 576 215.6 582.1Q224 588.2 232 592.6Q240 597 248 600.6Q256 604.1 264 607.1Q272 610.1 280 612.7Q288 615.2 296 617.4Q304 619.7 312 621.5Q320 623.3 328 624.8Q336 626.4 344 627.4Q352 628.5 360 629Q368 629.5 376 629.4Q384 629.3 392 628.9Q400 628.5 408 627.8Q416 627.2 424 626.6Q432 626 440 625.6Q448 625.1 456 624.9Q464 624.7 472 624.7Q480 624.7 488 624.9Q496 625.1 504 625.5Q512 625.9 520 626.4Q528 627 536 627.7Q544 628.3 552 629.1Q560 629.9 568 630.8Q576 631.6 584 632.8Q592 633.9 600 635.2Q608 636.4 616 637.8Q624 639.1 632 640.6Q640 642.2 648 643.9Q656 645.6 664 647.3Q672 649.1 680 651.1Q688 653 696 655Q704 657 712 659.2Q720 661.3 728 663.4Q736 665.5 744 667.6Q752 669.8 760 671.9Q768 673.9 776 676Q784 678 792 680Q800 681.9 808 683.8Q816 685.6 824 687.3Q832 689 840 690.4Q848 691.9 856 693.1Q864 694.3 872 695.1Q880 695.9 888 696.3Q896 696.7 904 696.6Q912 696.5 920 695.8Q928 695.1 936 693.9Q944 692.6 952 690.8Q960 688.9 968 686.6Q976 684.2 984 681.2Q992 678.3 999.3 675.1Q1006.5 672 1014.5 668Q1022.4 664 1029.3 660Q1036.2 656 1042.1 652Q1048 648.1 1053.2 644Q1058.4 640 1065.2 633.3Q1072 626.5 1076 621.3Q1080 616 1083.8 608Q1087.7 600 1089.7 592Q1091.7 584 1092.9 576Q1094.2 568 1095.5 560Q1096.8 552 1098.5 544Q1100.3 536 1102.1 528.2Q1104 520.5 1105.2 512.2Q1106.4 504 1105.2 497.6Q1104 491.2 1100 485.7Q1096 480.3 1088.9 476.1Q1081.7 472 1072.9 469.1Q1064 466.1 1056 464.1Q1048 462.1 1040 460.3Q1032 458.5 1024 456.7Q1016 454.9 1008 453Q1000 451.1 992 449Q984 446.9 976 444.5Q968 442.1 960 439.4Q952 436.6 944 433.5Q936 430.4 929 427.2Q921.9 424 914.3 420Q906.6 416 900 412Q893.3 408 887.4 404Q881.5 400 876.1 396Q870.6 392 865.4 388Q860.2 384 855 380Q849.7 376 844.3 372Q838.9 368 833 364Q827.2 360 821.6 356.5Q816 353 808.2 348.5Q800.3 344 792.6 340Q784.8 336 776.4 332.1Q768 328.2 760 324.7Q752 321.3 744 318.1Q736 314.8 728 311.8Q720 308.8 713.2 306.4Q706.5 304 697.2 300.9Q688 297.8 680 295.4Q672 293 664 290.9Q656 288.8 648 287.1Q640 285.3 632 284.1Q624 282.9 616 282.4Q608 281.8 600 281.9Q592 282 584 282.9Q576 283.8 568 285.4L560 287"></path><path d="M376 670.8Q360 679.9 354.7 687.9Q349.3 696 350.5 704Q351.7 712 359.9 718.4Q368 724.8 376 727.5Q384 730.1 392 731.1Q400 732.2 408 732.2Q416 732.2 424 731.3Q432 730.5 440 728.7Q448 726.9 456 723.9Q464 720.8 470.7 716.4Q477.3 712 479.6 704Q481.9 696 477 690.8Q472 685.7 464 681.6Q456 677.6 448 675.1Q440 672.5 432 670.7Q424 668.9 416 668Q408 667.1 400 667.2Q392 667.3 384 669L376 670.8"></path></g><g stroke-width="1.2"><path d="M552 271.7Q536 277.1 528 280.4Q520 283.8 512 287.5Q504 291.3 496 295.3Q488 299.4 480 303.5Q472 307.6 464 311.7Q456 315.8 448 319.8Q440 323.8 432 327.6Q424 331.5 416 335.1Q408 338.7 401.9 341.4Q395.8 344 385.9 348Q376 352 368 355Q360 358 352 360.8Q344 363.6 337.1 365.8Q330.2 368 321.1 370.7Q312 373.5 304 375.7Q296 377.9 288 379.9Q280 381.9 272 383.8Q264 385.6 256 387.4Q248 389.1 240.8 390.6Q233.5 392 224.8 393.8Q216 395.5 208 397.1Q200 398.6 192 400.2Q184 401.9 176 403.6Q168 405.3 160 407.2Q152 409.1 144 411.3Q136 413.5 128 416.2Q120 418.9 113.7 421.5Q107.5 424 101.7 427.2Q96 430.3 89.8 435.2Q83.6 440 79.9 448Q76.3 456 78.1 462.7Q80 469.5 84 475.5Q88 481.5 94.4 488.8Q100.9 496 106.4 502Q112 507.9 117.2 514Q122.3 520 127.8 528Q133.3 536 137.8 544Q142.2 552 147.1 560Q151.9 568 159.1 576Q166.2 584 175.1 590.7Q184 597.3 192 602.1Q200 607 208 611.3Q216 615.6 224 619.7Q232 623.8 239.7 627.9Q247.4 632 254.1 636Q260.9 640 266.3 644Q271.8 648 278.5 656Q285.3 664 288 672Q290.7 680 292.1 688Q293.6 696 296.1 704Q298.7 712 304.3 720Q309.9 728 315 732.2Q320 736.3 326.7 740.2Q333.4 744 342.7 747.5Q352 751 360 752.9Q368 754.8 376 755.9Q384 757.1 392 757.6Q400 758 408 757.9Q416 757.8 424 757.2Q432 756.6 440 755.5Q448 754.4 454.7 753.2Q461.4 752 470.7 749.7Q480 747.4 488 745.1Q496 742.7 504 739.9Q512 737.1 520 733.7Q528 730.3 536 726.3Q544 722.3 552 717.7Q560 713 566.7 708.5Q573.4 704 578.7 700.1Q584 696.2 590.6 692.1Q597.3 688 606.6 684.7Q616 681.3 624 680.3Q632 679.2 640 679.1Q648 678.9 656 679.3Q664 679.7 672 680.4Q680 681.2 688 682.2Q696 683.2 704 684.4Q712 685.7 718.8 686.8Q725.7 688 734.8 689.7Q744 691.4 752 693Q760 694.6 768 696.2Q776 697.9 784 699.6Q792 701.4 800 703.1Q808 704.8 816 706.5Q824 708.2 832 709.7Q840 711.3 848 712.7Q856 714.1 864 715.1Q872 716.2 880 716.7Q888 717.3 896 717.2Q904 717.2 912 716.5Q920 715.7 928 714.3Q936 712.9 944 710.9Q952 709 959.7 706.5Q967.5 704 975.7 701Q984 698 992 694.6Q1000 691.2 1008 687.5Q1016 683.7 1024 679.6Q1032 675.5 1040 671Q1048 666.5 1056 661.6Q1064 656.6 1070.2 652.3Q1076.4 648 1082.2 643.4Q1088 638.8 1095.5 631.4Q1103.1 624 1107.5 617.6Q1112 611.2 1116 601.6Q1120 592 1121.6 584Q1123.3 576 1124.7 568Q1126.2 560 1128.3 552Q1130.5 544 1133.2 536.8Q1136 529.6 1140 521.2Q1144 512.8 1148 504.4Q1152 496 1154.1 488Q1156.2 480 1154.1 473Q1152 466.1 1145.5 461Q1139 456 1129.5 453.1Q1120 450.2 1112 448.8Q1104 447.5 1096 446.7Q1088 445.9 1080 445.3Q1072 444.7 1064 444Q1056 443.4 1048 442.6Q1040 441.8 1032.6 440.9Q1025.1 440 1016.6 438.6Q1008 437.3 1000 435.6Q992 434 984 432Q976 430 968 427.5Q960 425 952 422Q944 418.9 936 415.3Q928 411.6 920 407.2Q912 402.8 904 397.7Q896 392.6 890 388.3Q883.9 384 878.4 380Q872.9 376 867.4 372Q861.8 368 856 364Q850.1 360 843.8 356Q837.5 352 830.8 348.1Q824 344.1 816.4 340.1Q808.8 336 800.6 332Q792.5 328 784.3 324.2Q776 320.4 768 316.9Q760 313.4 752 310Q744 306.6 736 303.3Q728 300 720 296.8Q712 293.6 704.8 290.8Q697.6 288 688.8 284.7Q680 281.3 672 278.6Q664 275.8 657.6 273.9Q651.1 272 641.6 269.7Q632 267.3 624 266.2Q616 265 608 264.6Q600 264.2 592 264.7Q584 265.1 576 266.3Q568 267.6 560 269.6L552 271.7"></path></g><g stroke-width="1.2"><path d="M853.4 0Q862.8 16 871.4 18.3Q880 20.7 888 20.2Q896 19.8 904 16.2Q912 12.6 915.8 6.3L919.5 0"></path><path d="M919.5 800Q915.4 784 911.9 776Q908.3 768 914.2 760.8Q920 753.5 927.1 748.8Q934.2 744 941.3 740Q948.5 736 956 732Q963.6 728 969.8 724.8Q976 721.7 984 717.5Q992 713.3 1000 709.1Q1008 704.9 1016 700.7Q1024 696.4 1031.7 692.2Q1039.4 688 1046.6 684Q1053.8 680 1060.8 676Q1067.8 672 1073.9 668.4Q1080 664.8 1087.1 660.4Q1094.3 656 1100.4 652Q1106.5 648 1112.1 644Q1117.8 640 1122.9 635.9Q1128 631.9 1135.9 623.9Q1143.8 616 1147.9 609.2Q1152 602.3 1154.7 593.2Q1157.4 584 1158.6 576Q1159.7 568 1161.6 560Q1163.4 552 1166.8 544Q1170.1 536 1175.2 528Q1180.4 520 1186.2 513Q1192 506.1 1196.9 501Q1201.9 496 1208.9 489.2Q1216 482.3 1221.6 477.2Q1227.1 472 1232.4 464Q1237.7 456 1231.5 448Q1225.3 440 1218.1 436Q1210.9 432 1201.4 428.1Q1192 424.3 1184 422Q1176 419.7 1168 418.4Q1160 417.1 1152 416.7Q1144 416.3 1136 416.6Q1128 416.8 1120 417.5Q1112 418.2 1104 419.1Q1096 419.9 1088 420.7Q1080 421.5 1072 422.1Q1064 422.7 1056 422.9Q1048 423.1 1040 422.9Q1032 422.8 1024 422.1Q1016 421.5 1008 420.4Q1000 419.2 992 417.6Q984 416 976 413.7Q968 411.4 960 408.5Q952 405.6 945.8 402.8Q939.6 400 933.8 397Q928 393.9 920 389.1Q912 384.4 905.7 380.2Q899.4 376 893.7 372.2Q888 368.4 881.6 364.2Q875.3 360 869.6 356.5Q864 353 856.2 348.5Q848.4 344 841 340Q833.5 336 825.5 332Q817.5 328 809 324Q800.6 320 792.3 316.2Q784 312.4 776 308.8Q768 305.2 760 301.6Q752 298 744 294.4Q736 290.7 728 287.1Q720 283.4 712 279.7Q704 276 696 272.3Q688 268.6 680 265.1Q672 261.6 664.6 258.8Q657.2 256 648.6 253.4Q640 250.7 633.3 249.4Q626.5 248 617.3 247.1Q608 246.1 600 246.2Q592 246.3 584.7 247.2Q577.4 248 568.7 249.8Q560 251.7 552.8 253.8Q545.7 256 536.8 259.4Q528 262.9 520 266.6Q512 270.4 504 274.6Q496 278.8 488 283.2Q480 287.7 472.7 291.9Q465.5 296 458.4 300Q451.3 304 443.9 308Q436.5 312 430.3 315.2Q424 318.5 416 322.4Q408 326.3 400 330Q392 333.6 384 337Q376 340.4 368 343.6Q360 346.7 352.7 349.4Q345.3 352 336.7 354.9Q328 357.8 320 360.2Q312 362.6 304 364.8Q296 367 288 369Q280 371.1 272 372.9Q264 374.7 256 376.4Q248 378.1 240 379.6Q232 381.1 224 382.6Q216 384 208 385.4Q200 386.7 192 388.1Q184 389.4 176 390.7Q168 392 160 393.4Q152 394.8 144 396.3Q136 397.8 128 399.4Q120 401.1 112 402.9Q104 404.8 96 407Q88 409.1 80 411.7Q72 414.3 64 417.3Q56 420.4 48 424Q40 427.7 32 432.3Q24 436.9 17.7 442.5Q11.3 448 13.7 455.9Q16 463.7 24 470.4Q32 477.1 38.9 482.6Q45.8 488 50.9 492.1Q56 496.1 64 503.4Q72 510.6 79.3 519.3Q86.7 528 91.3 536Q96 544 99.6 552Q103.3 560 107.6 567.7Q112 575.3 120 583.5Q128 591.7 133.9 595.8Q139.8 600 145.9 603.6Q152 607.1 160 611.5Q168 615.8 175.9 619.9Q183.8 624 191.2 628Q198.7 632 205.5 636Q212.3 640 218.2 644Q224 648 232 655.3Q240 662.6 244 668.3Q248 673.9 251.3 681Q254.6 688 257.4 696Q260.3 704 264 712Q267.8 720 273.9 727.9Q280 735.8 288 742.2Q296 748.5 304 753.1Q312 757.6 320 761Q328 764.4 336 766.9Q344 769.5 352 771.3Q360 773.1 368 774.3Q376 775.5 384 776.1Q392 776.8 400 776.9Q408 777 416 776.7Q424 776.3 432 775.5Q440 774.8 448 773.7Q456 772.5 464 771.1Q472 769.6 480 767.9Q488 766.2 496 764.2Q504 762.2 512 760Q520 757.8 528 755.4Q536 753 544 750.4Q552 747.7 560 745Q568 742.3 576 739.5Q584 736.7 592 733.9Q600 731 608 728.4Q616 725.7 624 723.4Q632 721.1 640 719.2Q648 717.4 656 716.1Q664 714.8 672 714.1Q680 713.4 688 713.2Q696 713 704 713.3Q712 713.5 720 714.2Q728 714.9 736 716Q744 717 752 718.3Q760 719.7 768 721.4Q776 723.1 784 725.1Q792 727.1 800 729.5Q808 731.9 814.6 733.9Q821.1 736 830.6 739.8Q840 743.5 848 747.5Q856 751.5 861.9 755.8Q867.8 760 867.3 768Q866.8 776 861.4 783.7Q856 791.4 854.7 795.7L853.4 800"></path></g><g stroke-width="1.2"><path d="M773.4 0Q779.2 16 785.6 23.1Q792 30.2 799.3 35.1Q806.7 40 815.3 43.9Q824 47.8 832 50.4Q840 53 848 55Q856 56.9 864 58.2Q872 59.4 880 60Q888 60.7 896 60.5Q904 60.4 912 59.4Q920 58.4 928 56.4Q936 54.3 943.5 51.2Q951 48 957.3 44Q963.7 40 969.9 34.1Q976 28.2 979.9 22.1Q983.8 16 985.6 8L987.4 0"></path><path d="M1280 394.1Q1264 389.5 1256 383.9Q1248 378.2 1245.9 369.1Q1243.7 360 1245.9 353Q1248 346.1 1250.8 337Q1253.7 328 1253.8 320Q1254 312 1251 306.1Q1248 300.2 1240 294.1Q1232 287.9 1224 285.1Q1216 282.3 1208 280.7Q1200 279.1 1192 278.4Q1184 277.8 1176 278Q1168 278.2 1160.7 279.1Q1153.4 280 1144.7 282.3Q1136 284.5 1128 288.1Q1120 291.6 1112 297.6Q1104 303.5 1100 308.6Q1096 313.8 1093.2 320.9Q1090.3 328 1090 336Q1089.6 344 1090.4 352Q1091.2 360 1089.6 367.5Q1088 375 1080 382.1Q1072 389.1 1064 392.2Q1056 395.4 1048 397.1Q1040 398.8 1033.2 399.4Q1026.4 400 1017.2 399.8Q1008 399.6 1000 398.5Q992 397.3 984 395.5Q976 393.6 968 390.9Q960 388.1 952 384.6Q944 381 936 376.8Q928 372.6 920 368.1Q912 363.5 904 359Q896 354.5 888 350.1Q880 345.7 872 341.6Q864 337.5 856 333.6Q848 329.7 840 326Q832 322.2 824 318.5Q816 314.9 808 311.2Q800 307.5 792 303.8Q784 300.1 776 296.3Q768 292.5 760 288.6Q752 284.6 744 280.4Q736 276.3 728 271.9Q720 267.5 712 262.9Q704 258.4 696 254Q688 249.6 680 245.8Q672 241.9 664 238.9Q656 235.9 648.8 233.9Q641.5 232 632.8 230.6Q624 229.3 616 228.9Q608 228.5 600 228.9Q592 229.3 584 230.4Q576 231.5 568 233.3Q560 235.1 552 237.5Q544 240 536 243.1Q528 246.2 520 250Q512 253.7 504 257.9Q496 262.2 488 266.8Q480 271.5 473 275.7Q466 280 459.4 284Q452.9 288 446.5 291.9Q440 295.7 432.8 299.9Q425.7 304 418.3 308Q411 312 403 316Q395.1 320 386.5 324Q377.8 328 368.9 331.7Q360 335.5 352 338.5Q344 341.6 336 344.3Q328 347.1 320.2 349.6Q312.4 352 304.2 354.3Q296 356.7 289.5 358.3Q282.9 360 273.5 362.2Q264 364.4 256 366Q248 367.6 240 369.1Q232 370.6 224 371.9Q216 373.2 208 374.4Q200 375.6 192 376.7Q184 377.8 176 378.8Q168 379.9 160 380.9Q152 381.8 144 382.8Q136 383.8 128 384.7Q120 385.7 112 386.7Q104 387.7 96 388.7Q88 389.7 80 390.7Q72 391.7 64 392.6Q56 393.6 48 394.3Q40 395.1 32 395.4Q24 395.8 16 395.5Q8 395.2 4 394.6L0 394.1"></path><path d="M773.4 800Q771.4 784 768.7 776Q766.1 768 759 762.1Q752 756.1 744 752.9Q736 749.7 728 747.9Q720 746.1 712 745.1Q704 744.2 696 744Q688 743.8 680 744.1Q672 744.5 664 745.3Q656 746.1 648 747.4Q640 748.6 632 750.2Q624 751.8 616 753.6Q608 755.4 600 757.3Q592 759.3 584 761.3Q576 763.4 568 765.5Q560 767.6 552 769.6Q544 771.7 536 773.7Q528 775.7 520 777.7Q512 779.6 504 781.4Q496 783.2 488 784.9Q480 786.5 472 788Q464 789.4 456 790.6Q448 791.8 440 792.7Q432 793.6 424 794.2Q416 794.7 408 794.9Q400 795 392 794.7Q384 794.4 376 793.5Q368 792.7 360 791.3Q352 789.9 344 787.9Q336 785.9 328 783.3Q320 780.7 312 777.5Q304 774.3 297.5 771.1Q291 768 284.1 764Q277.1 760 271.4 756Q265.7 752 257.2 744Q248.6 736 244.3 730Q240 723.9 236.8 718Q233.5 712 230 704Q226.4 696 222.2 688Q218 680 213 673.7Q208 667.3 201.7 661.7Q195.3 656 189.7 652.1Q184 648.3 176.7 644.1Q169.4 640 161 636Q152.7 632 144.4 628.4Q136 624.9 128 621.7Q120 618.5 112 615.5Q104 612.5 96 609.4Q88 606.3 80.6 603.1Q73.2 600 66.6 596Q59.9 592 54.6 584Q49.3 576 48.2 568Q47 560 45 552Q42.9 544 37.4 536.2Q32 528.4 26.2 524.2Q20.4 520 14.2 517.4Q8 514.9 4 513.9L0 513"></path><path d="M1280 513Q1264 512.7 1256 514.7Q1248 516.7 1240 521.2Q1232 525.7 1226.7 530.8Q1221.3 536 1217.3 544Q1213.2 552 1212.8 560Q1212.3 568 1213.9 576Q1215.5 584 1215.8 591.1Q1216 598.2 1212 604.7Q1208 611.1 1200 617.1Q1192 623.1 1184.2 627.6Q1176.4 632 1168.7 636Q1161.1 640 1153.2 644Q1145.4 648 1137.6 652Q1129.8 656 1122.1 660Q1114.5 664 1107 668Q1099.5 672 1093.7 675.1Q1088 678.2 1080 682.7Q1072 687.2 1064.3 691.6Q1056.6 696 1050 700Q1043.3 704 1037.7 707.6Q1032 711.2 1025.5 715.6Q1019 720 1013.9 724Q1008.7 728 1000.9 736Q993.1 744 989.5 752Q985.9 760 985.7 768Q985.5 776 986.4 784Q987.3 792 987.4 796L987.4 800"></path></g><g stroke-width="1.2"><path d="M320.2 0Q336 5.1 344 7.1Q352 9.1 360 10.5Q368 11.8 376 12.6Q384 13.4 392 13.6Q400 13.9 408 13.7Q416 13.5 424 12.9Q432 12.3 440 11.4Q448 10.5 456 9.4Q464 8.2 472 6.9Q480 5.5 488 4Q496 2.6 502.4 1.3L508.7 0"></path><path d="M705.7 0Q719.9 16 727.9 23.8Q736 31.5 741.7 35.8Q747.3 40 753.7 43.9Q760 47.7 768 51.8Q776 55.9 784 59.3Q792 62.8 800 65.8Q808 68.8 816 71.5Q824 74.2 832 76.7Q840 79.1 848 81.3Q856 83.5 864 85.5Q872 87.4 880 89.2Q888 91 896 92.5Q904 94 911.7 95Q919.3 96 927.7 96.7Q936 97.4 944 96.8Q952 96.3 960 93.8Q968 91.4 976 85.8Q984 80.2 992 72.9Q1000 65.6 1004.5 60.8Q1009 56 1015.5 48Q1022 40 1026.7 32Q1031.4 24 1033.7 16Q1035.9 8 1036.1 4L1036.3 0"></path><path d="M992 133.1Q981.1 144 984.3 152Q987.4 160 992.7 164Q997.9 168 1006.8 172Q1015.7 176 1023.8 178.1Q1032 180.2 1040 181.3Q1048 182.5 1056 182.2Q1064 182 1072 179.3Q1080 176.6 1083 168.3Q1085.9 160 1079 153.5Q1072 147.1 1064 143.5Q1056 139.8 1048 137.4Q1040 135 1032 133.5Q1024 132 1016 131.4Q1008 130.8 1000 132L992 133.1"></path><path d="M1280 275.4Q1264 265.7 1256 262.5Q1248 259.2 1240 256.7Q1232 254.3 1224 252.4Q1216 250.6 1208.5 249.3Q1201 248 1192.5 246.9Q1184 245.8 1176 245.2Q1168 244.6 1160 244.4Q1152 244.3 1144 245Q1136 245.6 1128 247.3Q1120 249 1112 252.1Q1104 255.2 1096.7 259.6Q1089.3 264 1084.1 268Q1079 272 1071.5 279.2Q1064 286.4 1056.8 295.2Q1049.7 304 1044.8 311.5Q1040 319.1 1036 326.4Q1032 333.7 1028 340.4Q1024 347 1016.3 353.5Q1008.6 360 1000.3 361.8Q992 363.6 984 363.2Q976 362.8 969 361.4Q962 360 953 357.3Q944 354.6 936 351.6Q928 348.7 920 345.5Q912 342.3 904.3 339.2Q896.6 336 888.3 332.6Q880 329.2 872 325.8Q864 322.5 856 319.1Q848 315.7 840 312.3Q832 308.8 824 305.3Q816 301.7 809.7 298.9Q803.5 296 795.3 292Q787.1 288 779.5 284Q771.9 280 765.9 276.6Q760 273.1 752.6 268.6Q745.2 264 739.2 260Q733.3 256 727.6 252Q721.8 248 716 244Q710.1 240 703.6 236Q697.1 232 688.9 228Q680.7 224 672.3 221.1Q664 218.3 656 216.5Q648 214.7 640 213.7Q632 212.7 624 212.4Q616 212.1 608 212.5Q600 212.9 592 213.8Q584 214.8 576 216.4Q568 218 560 220.2Q552 222.3 544 225.1Q536 227.9 528 231.2Q520 234.5 512 238.4Q504 242.2 496 246.6Q488 251 480 255.8Q472 260.6 464 265.6Q456 270.6 448.6 275.3Q441.3 280 434.9 284Q428.5 288 422.3 291.8Q416 295.5 408.6 299.8Q401.1 304 393.5 308Q385.9 312 377.5 316Q369.1 320 360.6 323.7Q352 327.4 344 330.5Q336 333.5 328 336.3Q320 339.1 312.1 341.5Q304.3 344 296.1 346.2Q288 348.5 280.9 350.2Q273.8 352 264.9 353.9Q256 355.9 248 357.4Q240 358.9 232 360.2Q224 361.5 216 362.6Q208 363.7 200 364.7Q192 365.6 184 366.4Q176 367.2 168 367.9Q160 368.5 152 369Q144 369.5 136 369.8Q128 370.2 120 370.3Q112 370.5 104 370.4Q96 370.3 88 369.9Q80 369.4 72 368.3Q64 367.3 56 364.9Q48 362.5 40.7 357.2Q33.5 352 30.2 344Q26.9 336 25.9 328Q24.8 320 23.1 312Q21.5 304 17.3 296Q13.1 288 6.5 281.7L0 275.4"></path><path d="M320 799.9Q304 793.6 296 790Q288 786.3 280 782.1Q272 777.9 264 773.1Q256 768.3 250 764.1Q244.1 760 238 755Q232 750 225.4 743Q218.9 736 213.6 728Q208.3 720 204.2 712Q200.1 704 196.1 696.8Q192 689.6 188 684.3Q184 679 176 671.9Q168 664.7 160.8 660.4Q153.6 656 144.8 652Q136 648.1 128 645.4Q120 642.8 112 640.8Q104 638.9 96 637.6Q88 636.2 80 635.6Q72 635 64 635Q56 635 48 635.7Q40 636.3 32 637.6Q24 638.8 16 640.3Q8 641.8 4 642.6L0 643.4"></path><path d="M1280 643.4Q1264 646.6 1256 648Q1248 649.4 1240 650.6Q1232 651.9 1224 653.1Q1216 654.3 1208 655.6Q1200 656.9 1192 658.5Q1184 660.1 1176.3 662.1Q1168.6 664 1160.3 666.5Q1152 669.1 1144 672Q1136 675 1130 677.5Q1123.9 680 1118 682.7Q1112 685.5 1104 689.6Q1096 693.6 1088 698.2Q1080 702.8 1072.9 707.4Q1065.8 712 1060.5 716Q1055.3 720 1047.6 727.7Q1040 735.5 1036 743.3Q1032 751.1 1031.5 759.6Q1030.9 768 1032.4 776Q1034 784 1035.1 792L1036.3 800"></path><path d="M705.7 800Q688 787 680 784.3Q672 781.6 664 780.5Q656 779.4 648 779.2Q640 779 632 779.4Q624 779.8 616 780.7Q608 781.5 600 782.6Q592 783.8 584 785.1Q576 786.5 568 788Q560 789.6 552 791.2Q544 792.8 536 794.4Q528 796.1 520 797.7Q512 799.3 510.4 799.7L508.7 800"></path></g><g stroke-width="2.2"><path d="M274.6 0Q288 7.2 296 11.1Q304 15 312 18.4Q320 21.7 328 24.4Q336 27 344 28.8Q352 30.6 360 31.8Q368 32.9 376 33.5Q384 34 392 34Q400 34.1 408 33.8Q416 33.4 424 32.8Q432 32.1 440 31.2Q448 30.3 456 29.3Q464 28.2 472 27Q480 25.8 488 24.5Q496 23.2 504 21.9Q512 20.6 520 19.3Q528 18 534.7 17Q541.5 16 550.7 14.8Q560 13.6 568 12.9Q576 12.1 584 11.7Q592 11.3 600 11.5Q608 11.6 616 12.4Q624 13.2 630.5 14.6Q637.1 16 646.5 19.3Q656 22.5 664 26.4Q672 30.3 680 34.8Q688 39.2 695.9 43.6Q703.9 48 711.7 52Q719.4 56 727.7 59.9Q736 63.8 744 67.3Q752 70.9 760 74.2Q768 77.5 776 80.8Q784 84 792 87.2Q800 90.5 806.8 93.2Q813.6 96 822.7 100Q831.7 104 839.6 108Q847.4 112 853.7 116Q860 120 866 125.1Q872 130.3 877.9 137.1Q883.8 144 889.9 151.5Q896 159 900.7 163.5Q905.4 168 910.8 172Q916.2 176 922.1 179.5Q928 183 936 187.1Q944 191.1 952 194.7Q960 198.3 968 201.8Q976 205.2 984 208.8Q992 212.3 1000 216.4Q1008 220.4 1016 226Q1024 231.5 1028 238.5Q1032 245.4 1030.9 254.7Q1029.7 264 1025.4 272Q1021 280 1014.9 288Q1008.8 296 1000.5 304Q992.2 312 985.7 316Q979.1 320 969.5 322.8Q960 325.6 952 326Q944 326.3 936 325.5Q928 324.7 920 323.1Q912 321.5 904 319.4Q896 317.4 888 314.9Q880 312.5 872 309.7Q864 306.9 856 303.8Q848 300.8 840 297.4Q832 294.1 825.3 291Q818.6 288 810.7 284Q802.9 280 795.9 276Q789 272 782.9 268Q776.8 264 771.4 260Q766.1 256 759 250Q752 244 745.1 238Q738.2 232 729.1 225.2Q720 218.4 712 214.2Q704 210 696 207.1Q688 204.2 680 202.2Q672 200.2 664 198.9Q656 197.7 648 197Q640 196.4 632 196.3Q624 196.2 616 196.7Q608 197.1 600 198.1Q592 199 584 200.5Q576 202 568 204Q560 206 552 208.5Q544 211 537.3 213.5Q530.5 216 521.3 220Q512 224 504 228Q496 232 488.8 236Q481.5 240 474.8 244Q468.1 248 462 251.8Q456 255.5 449.4 259.8Q442.9 264 436.7 268Q430.5 272 424.3 276Q418 280 411.6 284Q405.1 288 398.5 291.8Q392 295.6 384.3 299.8Q376.5 304 368.4 308Q360.2 312 352.1 315.6Q344 319.1 336 322.2Q328 325.4 320 328.1Q312 330.9 304 333.4Q296 335.9 288 338Q280 340.1 272 342Q264 343.9 256 345.4Q248 347 240 348.3Q232 349.7 224 350.8Q216 351.9 208 352.7Q200 353.5 192 354.1Q184 354.7 176 355Q168 355.3 160 355.4Q152 355.4 144 355.1Q136 354.8 128 354Q120 353.2 112 351.7Q104 350.1 96 347.3Q88 344.4 82 340.2Q76 336 70.8 328Q65.5 320 62.4 312Q59.3 304 55.6 296Q52 288 46.3 280Q40.6 272 32.3 264.6Q24 257.3 16.8 252.6Q9.6 248 4.8 245.4L0 242.8"></path><path d="M1096.9 0Q1093.7 16 1090.9 22.1Q1088 28.1 1084.8 34.1Q1081.7 40 1078 48Q1074.3 56 1073.2 64Q1072.1 72 1076.1 79.5Q1080 87 1085.4 91.5Q1090.7 96 1097.4 100Q1104 104 1111.5 108Q1118.9 112 1126.4 116Q1134 120 1140.8 124Q1147.7 128 1153.6 132Q1159.5 136 1167.8 143.9Q1176 151.8 1180 158.9Q1184 166.1 1186.9 175Q1189.7 184 1193.9 192Q1198 200 1203 204.4Q1208 208.9 1213.9 212.4Q1219.8 216 1225.9 218.8Q1232 221.6 1240 225Q1248 228.4 1256 231.8Q1264 235.2 1272 239L1280 242.8"></path><path d="M274.6 800Q260.4 792 254.2 788.3Q248 784.7 241.1 780.3Q234.2 776 228.2 772Q222.3 768 216.9 764Q211.5 760 205.8 755Q200 750 193.5 743Q186.9 736 181.5 728Q176 720 172 713.4Q168 706.7 164.3 701.4Q160.6 696 152.3 688.1Q144 680.2 136.7 676.1Q129.4 672 120.7 669Q112 666.1 104 664.6Q96 663.1 88 662.7Q80 662.3 72 662.7Q64 663.2 56 664.4Q48 665.7 40 667.5Q32 669.3 24 671.5Q16 673.6 8 675.8L0 678"></path><path d="M1280 678Q1264 681.7 1256 683.2Q1248 684.6 1240 685.5Q1232 686.3 1224 686.8Q1216 687.3 1209.3 687.7Q1202.6 688 1193.3 688.8Q1184 689.6 1176 690.7Q1168 691.9 1160 693.6Q1152 695.4 1144 698Q1136 700.6 1128 704.1Q1120 707.6 1112 712.3Q1104 717 1097.4 722.5Q1090.8 728 1086.1 736Q1081.3 744 1081.6 752Q1081.8 760 1084.9 767.2Q1088 774.3 1091.9 783.2Q1095.8 792 1096.3 796L1096.9 800"></path></g><g stroke-width="1.2"><path d="M236.2 0Q248 7.6 254.3 11.8Q260.7 16 266.3 19.8Q272 23.6 278.7 27.8Q285.4 32 292.8 36Q300.3 40 310.1 43.8Q320 47.5 328 49.4Q336 51.2 344 52.3Q352 53.4 360 53.9Q368 54.4 376 54.4Q384 54.5 392 54.2Q400 54 408 53.5Q416 53 424 52.3Q432 51.6 440 50.8Q448 50 456 49.1Q464 48.2 472 47.2Q480 46.2 488 45.3Q496 44.3 504 43.4Q512 42.5 520 41.7Q528 41 534.6 40.5Q541.3 40 550.6 39.6Q560 39.2 568 39.3Q576 39.4 584 40Q592 40.6 600 41.7Q608 42.8 616 44.6Q624 46.4 632 48.7Q640 51.1 647 53.5Q654 56 663 59.4Q672 62.9 680 66.1Q688 69.3 696 72.7Q704 76 712 79.3Q720 82.7 726.4 85.3Q732.7 88 741.8 92Q750.9 96 759.2 100Q767.5 104 774.8 108Q782 112 788.1 116Q794.1 120 801 126.4Q808 132.8 812 138Q816 143.2 820 150.2Q824 157.2 828 163.2Q832 169.3 840 176.2Q848 183 856 187.2Q864 191.4 872 194.8Q880 198.1 888 201.2Q896 204.3 904 207.4Q912 210.5 918.9 213.2Q925.8 216 934.7 220Q943.6 224 950.8 228Q958 232 963.2 236Q968.5 240 973.5 248Q978.5 256 977.3 264Q976.2 272 972.1 277.4Q968 282.8 960 288.2Q952 293.5 944 295.8Q936 298.2 928 298.8Q920 299.4 912 298.8Q904 298.3 897.2 297.1Q890.4 296 881.2 293.6Q872 291.2 864 288.4Q856 285.7 849 282.9Q842.1 280 834.2 276Q826.3 272 820 268Q813.6 264 808.5 260Q803.3 256 797.7 250.2Q792 244.4 788 239.3Q784 234.1 780 228.2Q776 222.2 772 216.9Q768 211.5 761.1 205.8Q754.3 200 745.6 196Q737 192 728.5 189.5Q720 187 712.8 185.5Q705.6 184 696.8 182.7Q688 181.4 680 180.6Q672 179.9 664 179.5Q656 179.2 648 179.2Q640 179.2 632 179.7Q624 180.1 616 181Q608 181.8 601.3 182.9Q594.5 184 585.3 185.9Q576 187.8 568.4 189.9Q560.7 192 552.4 194.7Q544 197.4 536 200.5Q528 203.5 520 207.1Q512 210.6 504 214.5Q496 218.4 488 222.7Q480 227 472 231.7Q464 236.4 456 241.3Q448 246.3 440.4 251.1Q432.9 256 426.7 260Q420.5 264 414.3 268Q408 272 401.6 276Q395.1 280 388.4 284Q381.6 288 374.8 291.7Q368 295.4 360 299.4Q352 303.4 344 307Q336 310.5 328 313.7Q320 316.8 312 319.6Q304 322.4 296 324.8Q288 327.2 280 329.2Q272 331.2 264 332.9Q256 334.7 248 336Q240 337.4 232 338.5Q224 339.5 216 340.3Q208 341 200 341.4Q192 341.8 184 341.8Q176 341.8 168 341.3Q160 340.8 152 339.6Q144 338.5 136 336.3Q128 334.1 121.5 331.1Q115 328 109.5 323.5Q104 319 100 313.8Q96 308.5 92.5 302.3Q88.9 296 84.5 288Q80 280 76 274.1Q72 268.1 66.9 262.1Q61.8 256 54.9 249.3Q48 242.7 41.4 237.3Q34.8 232 29.6 228Q24.3 224 19.1 220Q13.8 216 6.9 209.9L0 203.9"></path><path d="M1203.8 0Q1192 6.9 1185.2 11.5Q1178.5 16 1173.2 20.1Q1168 24.2 1160.4 32.1Q1152.9 40 1149 48Q1145.1 56 1146.2 64Q1147.2 72 1153.6 79.7Q1160 87.4 1165.6 91.7Q1171.3 96 1177.5 100Q1183.7 104 1190.4 108Q1197 112 1203.7 116Q1210.3 120 1216.5 124Q1222.7 128 1228 132Q1233.4 136 1240.7 143.7Q1248 151.3 1252 158.3Q1256 165.4 1260 174.1Q1264 182.9 1268 189Q1272 195.1 1276 199.5L1280 203.9"></path><path d="M236.2 800Q224 792.3 217.3 788.2Q210.5 784 204.1 780Q197.6 776 191.4 772Q185.1 768 179.1 764Q173.1 760 167.6 756Q162.1 752 157.1 747.9Q152 743.8 144 736.3Q136 728.8 128 721.3Q120 713.8 112 709.2Q104 704.6 96 703.1Q88 701.5 80 702.2Q72 702.9 64 705.8Q56 708.7 48 713.9Q40 719.1 35.2 723.6Q30.5 728 23.2 735.5Q16 743 11 747.5Q6.1 752 3 754.3L0 756.6"></path><path d="M1280 756.6Q1264 767.5 1256.6 771.8Q1249.3 776 1241.7 780Q1234.1 784 1226.4 788Q1218.6 792 1211.2 796L1203.8 800"></path></g><g stroke-width="1.2"><path d="M7.4 0L0 3.6"></path><path d="M194.5 0Q207.3 8 213 12Q218.6 16 225.3 21.5Q232 27.1 239 33.5Q246 40 251 44.6Q256 49.2 264 54.6Q272 60.1 280 63.3Q288 66.5 296 68.3Q304 70.1 310.8 71.1Q317.6 72 326.8 72.6Q336 73.2 344 73.4Q352 73.5 360 73.4Q368 73.3 376 73Q384 72.7 390.6 72.4Q397.2 72 406.6 71.4Q416 70.7 424 70.1Q432 69.4 440 68.8Q448 68.1 456 67.5Q464 66.8 472 66.2Q480 65.5 488 65Q496 64.4 504 64Q512 63.6 520 63.3Q528 63.1 536 63.1Q544 63.1 552 63.4Q560 63.8 568 64.5Q576 65.2 584 66.3Q592 67.5 600 69.1Q608 70.7 616 72.7Q624 74.8 632 77.2Q640 79.7 648 82.5Q656 85.4 664 88.6Q672 91.8 680 95.4Q688 99 696 103.2Q704 107.4 712 112.9Q720 118.4 725.2 127.2Q730.3 136 725.2 141.3Q720 146.6 712 149.2Q704 151.7 696 152.9Q688 154.1 680 154.9Q672 155.8 664 156.7Q656 157.6 648 158.6Q640 159.6 632 160.8Q624 161.9 616 163.3Q608 164.8 600.9 166.4Q593.9 168 584.9 170.3Q576 172.6 568 175.1Q560 177.6 552 180.5Q544 183.3 536 186.6Q528 189.8 520 193.4Q512 197 504 201Q496 205 488 209.3Q480 213.6 472 218.2Q464 222.8 456.4 227.4Q448.8 232 442.4 236Q436 240 430 243.8Q424 247.7 417.5 251.8Q411 256 405.5 259.5Q400 263 392.7 267.5Q385.3 272 378.4 276Q371.6 280 365.8 283.2Q360 286.3 352 290.4Q344 294.4 336 297.9Q328 301.5 320 304.6Q312 307.7 305.8 309.9Q299.6 312 289.8 314.8Q280 317.7 272 319.5Q264 321.4 256 322.9Q248 324.3 240 325.4Q232 326.5 224 327.1Q216 327.8 208 328Q200 328.1 192 327.7Q184 327.2 176 326Q168 324.8 160 322.5Q152 320.1 144.5 316.1Q136.9 312 129 304Q121 296 116.5 289.4Q112 282.8 108 276.6Q104 270.4 100 264.5Q96 258.7 92 253.4Q88 248.1 81.4 240Q74.8 232 69.4 225.4Q64 218.7 60 213.4Q56 208 52 200.6Q48 193.1 45.7 184.5Q43.4 176 42.6 168Q41.7 160 39.4 152Q37.2 144 30.6 136.5Q24 129 17.2 124.5Q10.5 120 5.2 117.2L0 114.4"></path><path d="M1280 3.6Q1264 11.7 1256 16.2Q1248 20.7 1240 26.1Q1232 31.5 1224.2 39.7Q1216.3 48 1214.6 56Q1213 64 1217.7 72Q1222.5 80 1231.3 86.5Q1240 93 1248 97.6Q1256 102.1 1264 106.2Q1272 110.3 1276 112.4L1280 114.4"></path><path d="M880 247Q892.2 256 886.1 251.5L880 247"></path><path d="M7.4 800Q24 792.3 32 788.8Q40 785.2 48 782Q56 778.7 64 776Q72 773.3 80 771.5Q88 769.7 96 769.2Q104 768.6 112 769.3Q120 770 128 771.9Q136 773.7 144 776.5Q152 779.2 160 782.7Q168 786.1 174 789Q180 792 186 795.3Q192 798.5 193.3 799.3L194.5 800"></path></g><g stroke-width="1.2"><path d="M80 7Q64 11.7 56 14.9Q48 18 41.8 21Q35.5 24 29.8 27.5Q24 31 18.4 35.5Q12.8 40 8.8 48Q4.7 56 9.5 64Q14.3 72 20.9 76Q27.4 80 33.7 82.7Q40 85.3 48 88.1Q56 90.8 64 93.2Q72 95.5 80 97.9Q88 100.3 96 103.1Q104 106 110.9 113Q117.9 120 115.6 128Q113.4 136 109 144Q104.6 152 100.7 160Q96.7 168 94.6 176Q92.5 184 92.8 192Q93.2 200 96 208Q98.8 216 103.2 224Q107.6 232 112.8 240Q118 248 123 255.4Q128 262.8 132 268.4Q136 274.1 141.8 281Q147.6 288 153.8 293.2Q160 298.4 168 302.5Q176 306.6 184 308.8Q192 311 200 312Q208 313 216 313.1Q224 313.3 232 312.8Q240 312.3 248 311.2Q256 310.1 264 308.5Q272 306.9 280 304.9Q288 302.9 296 300.3Q304 297.8 312 294.8Q320 291.7 328 288.2Q336 284.8 344 280.8Q352 276.9 360 272.5Q368 268.2 376 263.5Q384 258.8 392 253.9Q400 249 407.2 244.5Q414.3 240 420.7 236Q427 232 433.4 228Q439.8 224 446.3 220Q452.8 216 458.4 212.6Q464 209.2 471.9 204.6Q479.8 200 486.9 196Q494.1 192 501.6 188Q509.1 184 517 180Q524.9 176 533.3 172Q541.7 168 550.7 164Q559.7 160 567.8 156.5Q576 153 584 149.6Q592 146.2 600 142.5Q608 138.8 616 133.5Q624 128.2 622.8 120.1Q621.7 112 615.8 108Q609.9 104 600.9 100.3Q592 96.6 584 94.3Q576 92.1 568 90.3Q560 88.6 552 87.4Q544 86.3 536 85.5Q528 84.8 520 84.4Q512 83.9 504 83.8Q496 83.6 488 83.7Q480 83.7 472 83.9Q464 84.2 456 84.5Q448 84.8 440 85.2Q432 85.7 424 86.1Q416 86.6 408 87.1Q400 87.6 392 88.1Q384 88.6 376 89Q368 89.5 360 89.9Q352 90.3 344 90.7Q336 91 328 91.3Q320 91.6 312 91.8Q304 91.9 296 92Q288 92 280 91.9Q272 91.7 264 91.3Q256 90.9 248 90.2Q240 89.4 232 87.7Q224 86.1 217.5 83.1Q210.9 80 206.3 72Q201.7 64 198.9 56Q196.2 48 190.8 40Q185.4 32 176.7 25.3Q168 18.6 160 14.7Q152 10.8 144 8.4Q136 6 128 4.8Q120 3.6 112 3.5Q104 3.4 96 4.4Q88 5.3 84 6.2L80 7"></path></g><g stroke-width="1.2"><path d="M376 103.6Q360 104.6 352 105.2Q344 105.8 336 106.4Q328 107 320 107.7Q312 108.4 304 109.2Q296 110 288 110.9Q280 111.8 272 112.8Q264 113.8 256 115.1Q248 116.3 240 117.9Q232 119.5 224 121.5Q216 123.5 209.2 125.7Q202.4 128 193.2 131.9Q184 135.8 176.7 139.9Q169.5 144 163.8 148Q158.1 152 151.1 158.6Q144 165.2 140 170.5Q136 175.9 132.7 183.9Q129.5 192 129.3 200Q129.2 208 131.5 216Q133.8 224 137.9 232Q141.9 240 147 247.6Q152 255.3 159.1 263.6Q166.1 272 171.1 276.3Q176 280.6 182.1 284.3Q188.3 288 198.1 291.3Q208 294.7 216 295.7Q224 296.8 232 296.9Q240 297 248 296.3Q256 295.6 264 294.2Q272 292.9 280 290.9Q288 289 296 286.4Q304 283.9 312 280.9Q320 277.8 326.7 274.9Q333.4 272 341.5 268Q349.7 264 357.1 260Q364.6 256 370.3 252.7Q376 249.5 384 244.7Q391.9 240 398.4 236Q404.8 232 410.4 228.5Q416 225 423.1 220.5Q430.2 216 436.5 212Q442.8 208 449.1 204Q455.3 200 461.6 196Q467.9 192 474 188.2Q480 184.3 486.5 180.2Q493.1 176 498.5 172.4Q504 168.8 510.6 164.4Q517.3 160 522.6 156.1Q528 152.2 536 144.1Q544 136.1 544 129.5Q544 122.9 536.6 117.5Q529.2 112 520.6 109.6Q512 107.1 504 105.6Q496 104.2 488 103.4Q480 102.5 472 102.1Q464 101.6 456 101.4Q448 101.2 440 101.3Q432 101.3 424 101.5Q416 101.7 408 102Q400 102.3 392 102.7Q384 103.1 380 103.3L376 103.6"></path></g><g stroke-width="2.2"><path d="M344 119.9Q328 121.5 320 122.4Q312 123.4 304 124.5Q296 125.7 289.2 126.8Q282.4 128 273.2 129.9Q264 131.8 256 133.8Q248 135.9 240 138.4Q232 140.9 224 144Q216 147.2 208 151.2Q200 155.2 192 160.7Q184 166.1 178.7 171Q173.4 176 168.3 184Q163.3 192 161.9 200Q160.5 208 162.1 216Q163.7 224 167.7 232Q171.8 240 177.9 247.6Q184 255.1 189.2 259.6Q194.4 264 201.2 267.9Q208 271.9 216 274.4Q224 277 232 278.1Q240 279.2 248 279.1Q256 279 264 278Q272 277.1 280 275.4Q288 273.7 296 271.3Q304 268.9 310.8 266.5Q317.5 264 326.8 260.1Q336 256.1 344 252.2Q352 248.2 359.6 244.1Q367.2 240 374.1 236Q381 232 387.6 228Q394.2 224 400.5 220Q406.9 216 413 212Q419.1 208 425 204Q430.9 200 436.6 196Q442.3 192 447.8 188Q453.3 184 458.4 180Q463.5 176 471.8 168.4Q480 160.7 484 154.7Q488 148.7 488 142.1Q488 135.5 480 130.3Q472 125.1 464 122.9Q456 120.8 448 119.7Q440 118.6 432 118.1Q424 117.5 416 117.3Q408 117.1 400 117.2Q392 117.2 384 117.5Q376 117.8 368 118.2Q360 118.7 352 119.3L344 119.9"></path></g><g stroke-width="1.2"><path d="M336 135.2Q320 137.1 312 138.4Q304 139.7 296 141.2Q288 142.8 280 144.8Q272 146.8 264 149.3Q256 151.7 248 154.9Q240 158.1 232 162.2Q224 166.3 217.1 171.2Q210.2 176 205.1 181.6Q200 187.1 196.7 193.6Q193.4 200 193.1 208Q192.9 216 196.3 224Q199.8 232 207.9 240Q216 247.9 224 251.8Q232 255.6 240 257.3Q248 259.1 256 259.4Q264 259.7 272 258.9Q280 258.1 288 256.4Q296 254.8 304 252.3Q312 249.9 320 246.8Q328 243.7 336 240.1Q344 236.5 352 232.3Q360 228.2 368 223.6Q376 218.9 384 213.9Q392 208.8 398.4 204.4Q404.7 200 410 196Q415.3 192 423.6 184.4Q432 176.8 436 171.6Q440 166.4 441.7 159.2Q443.4 152 437.7 146.6Q432 141.2 424 138.7Q416 136.1 408 135.1Q400 134 392 133.6Q384 133.2 376 133.2Q368 133.2 360 133.6Q352 133.9 344 134.6L336 135.2"></path></g><g stroke-width="1.2"><path d="M344 151.7Q328 153 320 154.2Q312 155.4 304 157.1Q296 158.7 288 161.1Q280 163.5 273.8 165.7Q267.6 168 259.8 172Q252 176 246.6 180Q241.1 184 236.6 189.9Q232 195.8 231.3 205.9Q230.6 216 235.3 221.7Q240 227.3 248 231.1Q256 234.9 264 236.1Q272 237.2 280 236.8Q288 236.4 296 234.8Q304 233.3 312 230.8Q320 228.3 328 225Q336 221.7 344 217.5Q352 213.4 360 208.4Q368 203.4 375.5 197.7Q383 192 387.5 187.1Q392 182.2 394.9 175.1Q397.8 168 390.9 161.9Q384 155.8 376 154.1Q368 152.3 360 151.9Q352 151.6 348 151.7L344 151.7"></path></g></g></svg>